/vscmnt/brussel_pixiu_data/_data_brussel/112/vsc11236/PredSimResults/SUBJ07opt3D/trackIG/worker_11.mot
version=1
nRows=4
nColumns=50
inDegrees=yes
endheader
                time	         pelvis_tilt	         pelvis_list	     pelvis_rotation	           pelvis_tx	           pelvis_ty	           pelvis_tz	       hip_flexion_r	     hip_adduction_r	      hip_rotation_r	        knee_angle_r	       ankle_angle_r	         mtp_angle_r	       hip_flexion_l	     hip_adduction_l	      hip_rotation_l	        knee_angle_l	       ankle_angle_l	         mtp_angle_l	    lumbar_extension	      lumbar_bending	     lumbar_rotation	 ercspn_r/activation	 intobl_r/activation	 extobl_r/activation	    abd_r/activation	    add_r/activation	hamstrings_r/activation	bifemsh_r/activation	glut_max_r/activation	iliopsoas_r/activation	rect_fem_r/activation	  vasti_r/activation	gastroc_r/activation	 soleus_r/activation	tib_ant_r/activation	 ercspn_l/activation	 intobl_l/activation	 extobl_l/activation	    abd_l/activation	    add_l/activation	hamstrings_l/activation	bifemsh_l/activation	glut_max_l/activation	iliopsoas_l/activation	rect_fem_l/activation	  vasti_l/activation	gastroc_l/activation	 soleus_l/activation	tib_ant_l/activation	
          0.00000000	         -7.16563003	         -1.74399182	          7.70269584	          0.00000000	          0.84179252	         -0.00791352	         33.33085521	         -0.74697099	         -3.78380242	         -6.34510910	          4.46500925	          0.32904554	        -12.88842827	         -1.58269857	          3.23740943	        -13.23368897	          2.19837570	         35.44170652	        -13.24527574	          1.38451167	         -3.71808716	          0.13319472	          0.10839698	          0.01000016	          0.03181637	          0.20920880	          0.13109900	          0.21203095	          0.11530145	          0.05503381	          0.01000015	          0.01000005	          0.01000031	          0.01000002	          0.53827358	          0.10150901	          0.01000007	          0.01000027	          0.01602885	          0.09935060	          0.02870680	          0.11201671	          0.01439472	          0.34578359	          0.07392329	          0.02266633	          0.22040839	          0.20927918	          0.01000001	
          0.00928328	         -7.11351799	         -1.64972459	          7.70139479	          0.01776082	          0.83983437	         -0.00746999	         33.23517155	         -0.60125928	         -3.54215520	         -8.34464260	          3.89825867	          0.29502725	        -13.73411829	         -1.63201540	          2.96943521	        -13.82696855	          0.89517911	         36.20595390	        -13.02651173	          1.56167503	         -3.90207774	          0.11534809	          0.09387466	          0.01000006	          0.07018735	          0.20327310	          0.11353308	          0.18362096	          0.19002357	          0.04765983	          0.01000017	          0.01000003	          0.01333484	          0.01154723	          0.59405239	          0.14773027	          0.01000004	          0.01000020	          0.01388115	          0.10816832	          0.02486189	          0.11314279	          0.01246598	          0.39265254	          0.06401831	          0.01962927	          0.19087583	          0.18123810	          0.01000001	
          0.01856656	         -7.06278905	         -1.55851427	          7.65658262	          0.03536769	          0.83800339	         -0.00699172	         33.06223950	         -0.48851465	         -3.30882487	        -10.23501510	          3.36749127	          0.28008100	        -14.19922351	         -1.65449043	          2.68272112	        -15.11388997	         -0.27125871	         36.62933141	        -12.84070182	          1.74897731	         -4.05195643	          0.13867687	          0.08129640	          0.01000006	          0.16314787	          0.22526004	          0.09832078	          0.15901764	          0.22493455	          0.04127388	          0.01000005	          0.01000000	          0.01154812	          0.01000002	          0.72884015	          0.17035225	          0.01000002	          0.01000026	          0.01202122	          0.10124537	          0.02153427	          0.09798352	          0.01079568	          0.47200506	          0.05544051	          0.01699914	          0.16530035	          0.15695399	          0.01000002	
          0.02784984	         -7.01491450	         -1.47094588	          7.57104896	          0.05263150	          0.83651461	         -0.00645372	         32.88539398	         -0.36874386	         -3.12080533	        -12.04892929	          2.76789837	          0.24709920	        -14.21148156	         -1.65427556	          2.40006604	        -17.17682656	         -1.36199218	         36.64566769	        -12.71012805	          1.94357001	         -4.16586226	          0.17027295	          0.07040349	          0.01000006	          0.22447390	          0.23109105	          0.08514678	          0.13771087	          0.27759261	          0.03574359	          0.01000009	          0.01000003	          0.01000083	          0.01000003	          0.74437220	          0.22303981	          0.01000003	          0.01000013	          0.01041050	          0.09388981	          0.02211080	          0.08485510	          0.01000005	          0.43166815	          0.04801205	          0.01472142	          0.14315172	          0.13592370	          0.01000001	
